
<svg width="22" height="20" viewBox="0 0 22 20" fill="none" xmlns="http://www.w3.org/2000/svg">
<path d="M18.8667 0H2.22222C0.996289 0 0 0.996289 0 2.22222V4.3574C0 5.24814 0.527786 6.01573 1.28519 6.36944V17.7778C1.28519 19.0037 2.28148 20 3.50741 20H17.5815C18.8074 20 19.8037 19.0037 19.8037 17.7778V6.36944C20.5611 6.01481 21.0889 5.24721 21.0889 4.3574V2.22222C21.0889 0.996289 20.0926 0 18.8667 0ZM1.48148 2.22222C1.48148 1.81388 1.81388 1.48148 2.22222 1.48148H18.8667C19.275 1.48148 19.6074 1.81388 19.6074 2.22222V4.3574C19.6074 4.76574 19.275 5.09814 18.8667 5.09814H2.22222C1.81388 5.09814 1.48148 4.76574 1.48148 4.3574V2.22222ZM12.3963 6.66666V9.25937C12.3963 9.464 12.2306 9.62974 12.0259 9.62974H9.06298C8.85835 9.62974 8.69261 9.464 8.69261 9.25937V6.66666H12.3963ZM18.3222 17.7778C18.3222 18.1861 17.9898 18.5185 17.5815 18.5185H3.50743C3.09909 18.5185 2.76669 18.1861 2.76669 17.7778V6.57967H7.21113V9.25937C7.21113 10.2807 8.04169 11.1112 9.06298 11.1112H12.0259C13.0472 11.1112 13.8778 10.2807 13.8778 9.25937V6.57967H18.3222V17.7778Z" fill="#E4E6FF"/>
</svg>
