
<svg width="20" height="14" viewBox="0 0 20 14" fill="none" xmlns="http://www.w3.org/2000/svg">
<path d="M18.8337 1.88786L7.04657 13.675C6.9439 13.778 6.82191 13.8597 6.68759 13.9155C6.55327 13.9713 6.40927 14 6.26383 14C6.11839 14 5.97438 13.9713 5.84006 13.9155C5.70574 13.8597 5.58375 13.778 5.48109 13.675L0.324221 8.51812C0.22143 8.41532 0.139892 8.29329 0.0842622 8.15899C0.0286323 8.02469 1.5317e-09 7.88074 0 7.73538C-1.5317e-09 7.59001 0.0286323 7.44606 0.0842622 7.31176C0.139892 7.17746 0.22143 7.05543 0.324221 6.95264C0.427012 6.84985 0.549042 6.76831 0.683344 6.71268C0.817647 6.65705 0.961592 6.62842 1.10696 6.62842C1.25233 6.62842 1.39627 6.65705 1.53058 6.71268C1.66488 6.76831 1.78691 6.84985 1.8897 6.95264L6.26475 11.3277L17.2701 0.324221C17.4776 0.116626 17.7592 0 18.0528 0C18.3464 0 18.6279 0.116626 18.8355 0.324221C19.0431 0.531816 19.1598 0.813376 19.1598 1.10696C19.1598 1.40054 19.0431 1.6821 18.8355 1.8897L18.8337 1.88786Z" fill="url(#paint0_linear_2159_18482)"/>
<defs>
<linearGradient id="paint0_linear_2159_18482" x1="0.552399" y1="0.715595" x2="1.6894" y2="15.5952" gradientUnits="userSpaceOnUse">
<stop stop-color="#2AEBEB"/>
<stop offset="0.45" stop-color="#6174FF"/>
<stop offset="0.75" stop-color="#B63CFB"/>
<stop offset="1" stop-color="#FF47E3"/>
</linearGradient>
</defs>
</svg>
