
<svg width="38" height="38" viewBox="0 0 38 38" fill="none" xmlns="http://www.w3.org/2000/svg">
<path d="M38 19C38 25.0207 35.1996 30.3874 30.83 33.8683C27.5845 36.4548 23.4726 38 19 38C14.5274 38 10.4155 36.4548 7.16997 33.8683C2.8004 30.3874 0 25.0207 0 19C0 8.5067 8.5067 0 19 0C29.4933 0 38 8.5067 38 19Z" fill="#414360"/>
<path d="M19.0004 22.7413C23.4113 22.7413 26.9871 19.1655 26.9871 14.7545C26.9871 10.3436 23.4113 6.76782 19.0004 6.76782C14.5894 6.76782 11.0137 10.3436 11.0137 14.7545C11.0137 19.1655 14.5894 22.7413 19.0004 22.7413Z" fill="#7C7E93"/>
<path d="M30.83 33.8685C27.5844 36.455 23.4725 38.0002 18.9999 38.0002C14.5274 38.0002 10.4155 36.455 7.16992 33.8685C8.70631 28.7915 13.4214 25.0953 18.9999 25.0953C24.5785 25.0953 29.2936 28.7915 30.83 33.8685Z" fill="#7C7E93"/>
</svg>
