
<svg width="12" height="13" viewBox="0 0 12 13" fill="none" xmlns="http://www.w3.org/2000/svg">
<path d="M4.71624 0.587081C4.7827 0.610023 4.84777 0.636921 4.91145 0.667775L5.6727 1.04276C5.7746 1.09292 5.88665 1.119 6.00023 1.119C6.1138 1.119 6.22585 1.09292 6.32775 1.04276L7.089 0.667775C7.28126 0.573128 7.49028 0.517279 7.70413 0.503419C7.91797 0.489559 8.13245 0.517959 8.33532 0.586996C8.53819 0.656033 8.72548 0.764356 8.88648 0.905778C9.04748 1.0472 9.17905 1.21895 9.27367 1.41123L9.31698 1.50735L9.35436 1.60643L9.6273 2.40922C9.70147 2.62757 9.87294 2.79845 10.0907 2.87262L10.8941 3.14555C11.1138 3.22032 11.3151 3.34111 11.4844 3.49987C11.6538 3.65862 11.7873 3.85168 11.8761 4.06615C11.9649 4.28063 12.0069 4.51158 11.9993 4.74358C11.9917 4.97558 11.9347 5.20329 11.8321 5.41151L11.4577 6.17276C11.4076 6.27466 11.3815 6.38671 11.3815 6.50028C11.3815 6.61385 11.4076 6.72591 11.4577 6.8278L11.8321 7.58906C11.9346 7.79725 11.9916 8.02491 11.9991 8.25684C12.0066 8.48877 11.9646 8.71964 11.8758 8.93404C11.787 9.14844 11.6535 9.34144 11.4842 9.50015C11.3149 9.65886 11.1137 9.77964 10.8941 9.85442L10.0907 10.1274C9.98323 10.164 9.88561 10.2249 9.80537 10.3052C9.72513 10.3855 9.66441 10.4832 9.62789 10.5907L9.35436 11.3941C9.27958 11.6138 9.15881 11.815 9.00009 11.9843C8.84138 12.1536 8.64839 12.2871 8.43398 12.3759C8.21958 12.4646 7.98871 12.5067 7.75678 12.4991C7.52485 12.4916 7.29719 12.4347 7.089 12.3322L6.32775 11.9578C6.22585 11.9076 6.1138 11.8816 6.00023 11.8816C5.88665 11.8816 5.7746 11.9076 5.6727 11.9578L4.91145 12.3322C4.70326 12.4347 4.4756 12.4916 4.24367 12.4991C4.01174 12.5067 3.78087 12.4646 3.56647 12.3759C3.35207 12.2871 3.15907 12.1536 3.00036 11.9843C2.84165 11.815 2.72087 11.6138 2.64609 11.3941L2.37315 10.5907C2.33643 10.4832 2.2755 10.3856 2.19505 10.3053C2.1146 10.2251 2.01679 10.1644 1.90916 10.1279L1.10638 9.85442C0.886651 9.7797 0.68539 9.65897 0.516033 9.50029C0.346676 9.3416 0.213119 9.14861 0.124278 8.93421C0.0354383 8.7198 -0.00664083 8.48891 0.00085026 8.25694C0.00834135 8.02498 0.0652304 7.79728 0.167719 7.58906L0.542709 6.8278C0.592861 6.72591 0.618943 6.61385 0.618943 6.50028C0.618943 6.38671 0.592861 6.27466 0.542709 6.17276L0.167719 5.41151C0.0652304 5.20328 0.00834135 4.97558 0.00085026 4.74362C-0.00664083 4.51166 0.0354383 4.28077 0.124278 4.06636C0.213119 3.85195 0.346676 3.65896 0.516033 3.50028C0.68539 3.34159 0.886651 3.22086 1.10638 3.14615L1.90916 2.87321C2.0168 2.83657 2.11458 2.77567 2.19493 2.69521C2.27528 2.61476 2.33606 2.51691 2.37256 2.40922L2.6455 1.60643C2.71449 1.40351 2.82279 1.21616 2.96421 1.0551C3.10563 0.894041 3.27739 0.76242 3.46969 0.667759C3.66199 0.573097 3.87105 0.51725 4.08494 0.503407C4.29883 0.489564 4.51335 0.517996 4.71624 0.587081ZM8.05911 4.70188L4.84322 7.91777L3.67197 6.51156C3.63509 6.46507 3.58928 6.42643 3.53725 6.39792C3.48521 6.3694 3.428 6.35157 3.36897 6.34549C3.30995 6.33941 3.2503 6.3452 3.19355 6.36251C3.13679 6.37982 3.08407 6.40831 3.03849 6.44629C2.9929 6.48428 2.95538 6.531 2.92811 6.5837C2.90085 6.63641 2.88441 6.69403 2.87974 6.75319C2.87508 6.81234 2.8823 6.87183 2.90096 6.92815C2.91963 6.98448 2.94938 7.0365 2.98845 7.08116L4.47179 8.86117C4.51134 8.90866 4.56035 8.94739 4.61569 8.97489C4.67103 9.0024 4.7315 9.01807 4.79324 9.02092C4.85497 9.02377 4.91662 9.01372 4.97426 8.99143C5.0319 8.96914 5.08427 8.93508 5.12802 8.89143L8.68804 5.33141C8.73177 5.29067 8.76683 5.24154 8.79116 5.18695C8.81548 5.13237 8.82856 5.07344 8.82961 5.01369C8.83066 4.95394 8.81967 4.89459 8.79729 4.83918C8.77491 4.78377 8.7416 4.73343 8.69934 4.69117C8.65708 4.64892 8.60675 4.6156 8.55134 4.59322C8.49593 4.57084 8.43658 4.55985 8.37683 4.5609C8.31707 4.56196 8.25815 4.57504 8.20356 4.59936C8.14898 4.62368 8.09985 4.65875 8.05911 4.70247" fill="white"/>
</svg>
