
<svg width="18" height="18" viewBox="0 0 18 18" fill="none" xmlns="http://www.w3.org/2000/svg">
<path d="M10.295 8.9796L17.736 1.53856C17.8831 1.36685 17.9599 1.14597 17.9512 0.920067C17.9425 0.694164 17.8488 0.479874 17.689 0.320018C17.5291 0.160161 17.3148 0.0665128 17.0889 0.0577872C16.863 0.0490615 16.6421 0.125901 16.4704 0.272951L9.02937 7.714L1.58833 0.263975C1.41931 0.0949546 1.19007 0 0.951039 0C0.712008 0 0.482768 0.0949546 0.313748 0.263975C0.144728 0.432995 0.0497731 0.662235 0.0497731 0.901266C0.0497731 1.1403 0.144728 1.36954 0.313748 1.53856L7.76377 8.9796L0.313748 16.4206C0.219786 16.5011 0.143473 16.6001 0.089596 16.7115C0.0357196 16.8229 0.00544362 16.9441 0.000668878 17.0678C-0.00410586 17.1914 0.0167232 17.3146 0.0618493 17.4298C0.106975 17.545 0.175424 17.6496 0.262899 17.7371C0.350374 17.8246 0.454986 17.893 0.570169 17.9382C0.685353 17.9833 0.808622 18.0041 0.932237 17.9993C1.05585 17.9946 1.17715 17.9643 1.28851 17.9104C1.39987 17.8565 1.49889 17.7802 1.57935 17.6863L9.02937 10.2452L16.4704 17.6863C16.6421 17.8333 16.863 17.9101 17.0889 17.9014C17.3148 17.8927 17.5291 17.799 17.689 17.6392C17.8488 17.4793 17.9425 17.265 17.9512 17.0391C17.9599 16.8132 17.8831 16.5924 17.736 16.4206L10.295 8.9796Z" fill="white"/>
</svg>
