
<svg width="20" height="21" viewBox="0 0 20 21" fill="none" xmlns="http://www.w3.org/2000/svg">
<path d="M2.76085 2.13599C2.8315 2.06535 2.86682 2.03002 2.89794 2.00143C3.6631 1.29835 4.83921 1.29835 5.60436 2.00143C5.63548 2.03002 5.67081 2.06535 5.74145 2.13599L7.19965 3.59419C8.0017 4.39624 8.23109 5.60748 7.77785 6.64726C7.32461 7.68705 7.554 8.89828 8.35605 9.70034L10.7529 12.0971C11.5549 12.8992 12.7661 13.1286 13.8059 12.6753C14.8457 12.2221 16.057 12.4515 16.859 13.2535L18.3172 14.7117C18.3878 14.7824 18.4232 14.8177 18.4518 14.8488C19.1548 15.614 19.1548 16.7901 18.4518 17.5553C18.4232 17.5864 18.3878 17.6217 18.3172 17.6923L17.4309 18.5787C16.7091 19.3005 15.6685 19.6035 14.6721 19.382C7.88248 17.8732 2.57995 12.5707 1.07115 5.78112C0.849715 4.78466 1.15272 3.74413 1.87451 3.02234L2.76085 2.13599Z" stroke="#8688A5" stroke-width="1.5"/>
</svg>
