
<svg width="60" height="66" viewBox="0 0 60 66" fill="none" xmlns="http://www.w3.org/2000/svg">
<path d="M57.209 12.69C52.379 12.21 47.549 11.85 42.689 11.58V11.55L42.029 7.65C41.579 4.89 40.919 0.75 33.899 0.75H26.039C19.049 0.75 18.389 4.71 17.909 7.62L17.279 11.46C14.489 11.64 11.699 11.82 8.90901 12.09L2.78901 12.69C1.52901 12.81 0.629008 13.92 0.749008 15.15C0.869008 16.38 1.94901 17.28 3.20901 17.16L9.32901 16.56C25.049 15 40.889 15.6 56.789 17.19H57.029C58.169 17.19 59.159 16.32 59.279 15.15C59.3242 14.5507 59.1328 13.9576 58.7458 13.4977C58.3589 13.0379 57.8072 12.7479 57.209 12.69ZM51.689 21.42C50.969 20.67 49.979 20.25 48.959 20.25H11.039C10.019 20.25 8.99901 20.67 8.30901 21.42C7.61901 22.17 7.22901 23.19 7.28901 24.24L9.14901 55.02C9.47901 59.58 9.89901 65.28 20.369 65.28H39.629C50.099 65.28 50.519 59.61 50.849 55.02L52.709 24.27C52.769 23.19 52.379 22.17 51.689 21.42ZM34.979 50.25H24.989C23.759 50.25 22.739 49.23 22.739 48C22.739 46.77 23.759 45.75 24.989 45.75H34.979C36.209 45.75 37.229 46.77 37.229 48C37.229 49.23 36.209 50.25 34.979 50.25ZM37.499 38.25H22.499C21.269 38.25 20.249 37.23 20.249 36C20.249 34.77 21.269 33.75 22.499 33.75H37.499C38.729 33.75 39.749 34.77 39.749 36C39.749 37.23 38.729 38.25 37.499 38.25Z" fill="url(#paint0_linear_1680_45616)"/>
<defs>
<linearGradient id="paint0_linear_1680_45616" x1="2.42628" y1="4.04838" x2="-5.56126" y2="79.316" gradientUnits="userSpaceOnUse">
<stop stop-color="#2AEBEB"/>
<stop offset="0.45" stop-color="#6174FF"/>
<stop offset="0.75" stop-color="#B63CFB"/>
<stop offset="1" stop-color="#FF47E3"/>
</linearGradient>
</defs>
</svg>
