
<svg width="22" height="21" viewBox="0 0 22 21" fill="none" xmlns="http://www.w3.org/2000/svg">
<path d="M1.60805 4.12236C1 5.40989 1 7.24817 1 10.4741C1 14.2239 1 16.0987 1.95491 17.413C2.26331 17.8375 2.6366 18.2108 3.06107 18.5192C4.3754 19.4741 6.25027 19.4741 10 19.4741H12C15.7497 19.4741 17.6246 19.4741 18.9389 18.5192C19.3634 18.2108 19.7367 17.8375 20.0451 17.413C21 16.0987 21 14.2239 21 10.4741C21 7.22537 21 5.38397 20.379 4.09515M1.60805 4.12236C1.70677 3.91332 1.82153 3.71879 1.95491 3.53519C2.26331 3.11072 2.6366 2.73743 3.06107 2.42904C4.3754 1.47412 6.25027 1.47412 10 1.47412H12C15.7497 1.47412 17.6246 1.47412 18.9389 2.42904C19.3634 2.73743 19.7367 3.11072 20.0451 3.53519C20.1727 3.7108 20.2832 3.8964 20.379 4.09515M1.60805 4.12236L2 4.47412L3.92893 6.40305C7.26227 9.73639 8.92893 11.4031 11 11.4031C13.0711 11.4031 14.7377 9.73639 18.0711 6.40306L20 4.47412L20.379 4.09515" stroke="#8688A5" stroke-width="1.5"/>
</svg>
