
<svg width="22" height="19" viewBox="0 0 22 19" fill="none" xmlns="http://www.w3.org/2000/svg">
<path d="M11 11.7241C10.5858 11.7241 10.25 12.0599 10.25 12.4741C10.25 12.8883 10.5858 13.2241 11 13.2241V11.7241ZM14.75 9.47412C14.75 9.05991 14.4142 8.72412 14 8.72412C13.5858 8.72412 13.25 9.05991 13.25 9.47412H14.75ZM2.22067 7.59952L1.61141 7.16214L2.22067 7.59952ZM2.22045 11.3484L2.82971 10.911L2.82971 10.911L2.22045 11.3484ZM4.78797 14.3669L5.35092 13.8714L5.33191 13.8498L5.3113 13.8297L4.78797 14.3669ZM17.101 4.47412L16.5824 5.01586L16.6037 5.03626L16.6265 5.05491L17.101 4.47412ZM1.33692 9.4741L0.586916 9.47409L1.33692 9.4741ZM19.7793 11.3487L20.3886 11.7861V11.7861L19.7793 11.3487ZM19.7793 7.59944L19.17 8.03683L19.17 8.03683L19.7793 7.59944ZM19.3953 5.86488C19.1332 5.54415 18.6607 5.49664 18.34 5.75876C18.0193 6.02088 17.9718 6.49337 18.2339 6.8141L19.3953 5.86488ZM6.93753 15.2063C6.60111 14.9647 6.13249 15.0415 5.89085 15.3779C5.64921 15.7143 5.72604 16.183 6.06247 16.4246L6.93753 15.2063ZM20.6631 9.47411L19.9131 9.47412L20.6631 9.47411ZM0.531479 16.8885C0.208032 17.1472 0.155591 17.6192 0.414348 17.9426C0.673106 18.2661 1.14507 18.3185 1.46852 18.0598L0.531479 16.8885ZM21.4685 2.05977C21.792 1.80102 21.8444 1.32905 21.5857 1.0056C21.3269 0.682153 20.8549 0.629712 20.5315 0.88847L21.4685 2.05977ZM17.1747 4.53433L17.6433 5.11999L17.1747 4.53433ZM4.82765 14.412L5.29617 14.9977L4.82765 14.412ZM11 5.72412C8.92893 5.72412 7.25 7.40305 7.25 9.47412H8.75C8.75 8.23148 9.75736 7.22412 11 7.22412V5.72412ZM7.25 9.47412C7.25 10.3549 7.5546 11.1667 8.06365 11.8068L9.23767 10.8731C8.93209 10.4889 8.75 10.0038 8.75 9.47412H7.25ZM13.9274 7.13023C13.2414 6.27433 12.1847 5.72412 11 5.72412V7.22412C11.7103 7.22412 12.3434 7.55236 12.7569 8.06835L13.9274 7.13023ZM11 13.2241C13.0711 13.2241 14.75 11.5452 14.75 9.47412H13.25C13.25 10.7168 12.2426 11.7241 11 11.7241V13.2241ZM11 0.724121C8.85904 0.724121 6.92324 1.78311 5.35173 3.06984C3.77163 4.36359 2.47961 5.95277 1.61141 7.16214L2.82992 8.03691C3.65919 6.88177 4.86348 5.40826 6.302 4.23043C7.7491 3.04558 9.35423 2.22412 11 2.22412V0.724121ZM1.61118 11.7858C2.27304 12.7078 3.17749 13.8452 4.26464 14.9042L5.3113 13.8297C4.30603 12.8504 3.45829 11.7866 2.82971 10.911L1.61118 11.7858ZM17.6197 3.93238C15.8873 2.2737 13.5908 0.724121 11 0.724121V2.22412C13.0028 2.22412 14.9382 3.44174 16.5824 5.01586L17.6197 3.93238ZM1.61141 7.16214C1.05704 7.93435 0.586923 8.5455 0.586916 9.47409L2.08692 9.4741C2.08692 9.11558 2.20597 8.90605 2.82992 8.03691L1.61141 7.16214ZM2.82971 10.911C2.20592 10.0421 2.08691 9.83263 2.08692 9.4741L0.586916 9.47409C0.586909 10.4027 1.05693 11.0137 1.61119 11.7858L2.82971 10.911ZM11 18.2241C13.141 18.2241 15.0768 17.1651 16.6483 15.8784C18.2284 14.5847 19.5204 12.9955 20.3886 11.7861L19.1701 10.9113C18.3408 12.0665 17.1365 13.54 15.698 14.7178C14.2509 15.9027 12.6458 16.7241 11 16.7241V18.2241ZM20.3885 7.16205C20.1009 6.76134 19.7682 6.32106 19.3953 5.86488L18.2339 6.8141C18.5844 7.24297 18.8981 7.65805 19.17 8.03683L20.3885 7.16205ZM6.06247 16.4246C7.487 17.4478 9.16759 18.2241 11 18.2241V16.7241C9.59519 16.7241 8.21818 16.1262 6.93753 15.2063L6.06247 16.4246ZM20.3886 11.7861C20.943 11.0139 21.4131 10.4027 21.4131 9.47411L19.9131 9.47412C19.9131 9.83264 19.794 10.0422 19.1701 10.9113L20.3886 11.7861ZM19.17 8.03683C19.794 8.90604 19.9131 9.11559 19.9131 9.47412L21.4131 9.47411C21.4131 8.5455 20.9429 7.93432 20.3885 7.16205L19.17 8.03683ZM17.6433 5.11999L21.4685 2.05977L20.5315 0.88847L16.7062 3.94868L17.6433 5.11999ZM16.6265 5.05491L16.7002 5.11513L17.6493 3.95354L17.5756 3.89333L16.6265 5.05491ZM1.46852 18.0598L5.29617 14.9977L4.35913 13.8264L0.531479 16.8885L1.46852 18.0598ZM5.29617 14.9977L17.6433 5.11999L16.7062 3.94868L4.35913 13.8264L5.29617 14.9977ZM4.22503 14.8625L4.2647 14.9076L5.39059 13.9164L5.35092 13.8714L4.22503 14.8625Z" fill="#8688A5"/>
</svg>
