
<svg width="40" height="40" viewBox="0 0 40 40" fill="none" xmlns="http://www.w3.org/2000/svg">
<g clip-path="url(#clip0_150_4746)">
<path d="M40 20C40 8.95431 31.0457 0 20 0C8.95431 0 0 8.95431 0 20C0 31.0457 8.95431 40 20 40C31.0457 40 40 31.0457 40 20Z" fill="url(#paint0_linear_150_4746)"/>
<path d="M35.0524 6.8421C32.1366 12.1947 28.0129 17.7158 22.8603 22.8684C17.7077 28.021 12.1866 32.1368 6.84188 35.0526C6.50679 34.7614 6.18136 34.4579 5.86557 34.1421C3.95677 32.297 2.4344 30.0904 1.38724 27.6509C0.340078 25.2114 -0.210927 22.5878 -0.233643 19.9331C-0.256359 17.2784 0.249667 14.6458 1.25493 12.1887C2.26019 9.73163 3.74457 7.49927 5.62152 5.6218C7.49846 3.74433 9.73041 2.25933 12.1872 1.25338C14.644 0.247434 17.2765 -0.259327 19.9312 -0.237352C22.5859 -0.215377 25.2096 0.334895 27.6494 1.38138C30.0892 2.42786 32.2963 3.94961 34.1419 5.85789C34.4577 6.17368 34.7612 6.50175 35.0524 6.8421Z" fill="white" fill-opacity="0.0627451"/>
<path d="M24.7368 9.47363H15.2631C13.7276 9.47363 12.2551 10.0836 11.1693 11.1693C10.0836 12.2551 9.47363 13.7276 9.47363 15.2631V24.7368C9.47363 26.2723 10.0836 27.7448 11.1693 28.8306C12.2551 29.9163 13.7276 30.5263 15.2631 30.5263H24.7368C26.2723 30.5263 27.7448 29.9163 28.8306 28.8306C29.9163 27.7448 30.5263 26.2723 30.5263 24.7368V15.2631C30.5263 13.7276 29.9163 12.2551 28.8306 11.1693C27.7448 10.0836 26.2723 9.47363 24.7368 9.47363ZM28.6842 23.9052C28.6842 25.1727 28.1807 26.3882 27.2844 27.2844C26.3882 28.1807 25.1727 28.6842 23.9052 28.6842H16.0947C14.8272 28.6842 13.6117 28.1807 12.7155 27.2844C11.8192 26.3882 11.3157 25.1727 11.3157 23.9052V16.0947C11.3157 14.8272 11.8192 13.6117 12.7155 12.7155C13.6117 11.8192 14.8272 11.3157 16.0947 11.3157H23.9052C25.1727 11.3157 26.3882 11.8192 27.2844 12.7155C28.1807 13.6117 28.6842 14.8272 28.6842 16.0947V23.9052Z" fill="white"/>
<path d="M23.8395 16.1999L23.7895 16.1499L23.7474 16.1078C22.7524 15.1163 21.4047 14.5598 20 14.5605C19.2907 14.5653 18.5892 14.7098 17.9357 14.9858C17.2822 15.2618 16.6895 15.6639 16.1915 16.169C15.6934 16.6742 15.2998 17.2725 15.033 17.9298C14.7663 18.5871 14.6317 19.2906 14.6369 19.9999C14.6358 21.4396 15.2033 22.8213 16.2158 23.8447C16.7118 24.3467 17.3028 24.7449 17.9543 25.016C18.6059 25.287 19.3049 25.4256 20.0105 25.4236C21.0691 25.4014 22.0983 25.0717 22.9726 24.4746C23.8469 23.8775 24.5286 23.039 24.9346 22.0611C25.3405 21.0833 25.4531 20.0084 25.2586 18.9677C25.0642 17.9269 24.5711 16.9653 23.8395 16.1999ZM20 23.5684C19.2922 23.5783 18.5974 23.3775 18.0041 22.9914C17.4107 22.6054 16.9456 22.0516 16.6678 21.4005C16.39 20.7494 16.3122 20.0304 16.4442 19.3349C16.5762 18.6395 16.912 17.999 17.409 17.4949C17.906 16.9908 18.5417 16.646 19.2353 16.5042C19.9288 16.3624 20.6488 16.4301 21.3038 16.6986C21.9588 16.9672 22.5191 17.4245 22.9134 18.0123C23.3078 18.6002 23.5184 19.2921 23.5184 19.9999C23.5219 20.4653 23.4336 20.9268 23.2587 21.3581C23.0837 21.7893 22.8254 22.1819 22.4987 22.5133C22.1719 22.8446 21.7831 23.1084 21.3543 23.2894C20.9256 23.4705 20.4654 23.5653 20 23.5684ZM26.9553 14.3105C26.9567 14.4793 26.9247 14.6468 26.8613 14.8033C26.7979 14.9598 26.7042 15.1023 26.5857 15.2226C26.4671 15.3428 26.326 15.4385 26.1704 15.5042C26.0148 15.5698 25.8478 15.6042 25.679 15.6052C25.5115 15.6051 25.3457 15.5718 25.1913 15.5072C25.0368 15.4426 24.8966 15.348 24.779 15.2289C24.6007 15.048 24.4794 14.8188 24.4302 14.5696C24.381 14.3205 24.406 14.0623 24.5021 13.8272C24.5982 13.5922 24.7612 13.3904 24.9709 13.2471C25.1805 13.1038 25.4277 13.0252 25.6816 13.021C25.9788 13.0209 26.2666 13.1253 26.4948 13.3157L26.5211 13.342C26.5635 13.3766 26.6023 13.4154 26.6369 13.4578L26.6658 13.4894C26.8542 13.7215 26.9565 14.0116 26.9553 14.3105Z" fill="white"/>
</g>
<defs>
<linearGradient id="paint0_linear_150_4746" x1="5.85789" y1="5.85789" x2="34.1421" y2="34.1421" gradientUnits="userSpaceOnUse">
<stop stop-color="#FAE100"/>
<stop offset="0.15" stop-color="#FCB720"/>
<stop offset="0.3" stop-color="#FF7950"/>
<stop offset="0.5" stop-color="#FF1C74"/>
<stop offset="1" stop-color="#6C1CD1"/>
</linearGradient>
<clipPath id="clip0_150_4746">
<rect width="40" height="40" fill="white"/>
</clipPath>
</defs>
</svg>
