
<svg width="63" height="60" viewBox="0 0 63 60" fill="none" xmlns="http://www.w3.org/2000/svg">
<path fill-rule="evenodd" clip-rule="evenodd" d="M23.686 27.69C22.3735 27.69 21.3358 28.71 21.3358 30C21.3358 31.26 22.3735 32.31 23.686 32.31H42V46.65C42 54 35.9259 60 28.4172 60H13.5523C6.07413 60 0 54.03 0 46.68V13.35C0 5.97 6.10465 0 13.5828 0H28.4782C35.9259 0 42 5.97 42 13.32V27.69H23.686ZM52.8906 19.6206L61.6506 28.3506C62.1006 28.8006 62.3406 29.3706 62.3406 30.0006C62.3406 30.6006 62.1006 31.2006 61.6506 31.6206L52.8906 40.3506C52.4406 40.8006 51.8406 41.0406 51.2706 41.0406C50.6706 41.0406 50.0706 40.8006 49.6206 40.3506C48.7206 39.4506 48.7206 37.9806 49.6206 37.0806L54.4206 32.3106H42.0006V27.6906H54.4206L49.6206 22.9206C48.7206 22.0206 48.7206 20.5506 49.6206 19.6506C50.5206 18.7206 51.9906 18.7206 52.8906 19.6206Z" fill="url(#paint0_linear_3171_2272)"/>
<defs>
<linearGradient id="paint0_linear_3171_2272" x1="40.5364" y1="-7.75624" x2="25.6352" y2="82.0497" gradientUnits="userSpaceOnUse">
<stop stop-color="#2AEBEB"/>
<stop offset="0.45" stop-color="#6174FF"/>
<stop offset="0.75" stop-color="#B63CFB"/>
<stop offset="1" stop-color="#FF47E3"/>
</linearGradient>
</defs>
</svg>
