
<svg width="14" height="14" viewBox="0 0 14 14" fill="none" xmlns="http://www.w3.org/2000/svg">
<circle cx="7.00308" cy="7.00308" r="4.42105" fill="white"/>
<path fill-rule="evenodd" clip-rule="evenodd" d="M7 14C3.13396 14 0 10.866 0 7C0 3.13396 3.13396 0 7 0C10.866 0 14 3.13396 14 7C14 10.866 10.866 14 7 14ZM10.1465 4.64625C10.1001 4.59978 10.0449 4.56292 9.98426 4.53777C9.92358 4.51262 9.85854 4.49968 9.79285 4.49968C9.72717 4.49968 9.66213 4.51262 9.60145 4.53777C9.54076 4.56292 9.48563 4.59978 9.43921 4.64625L6.25042 7.83621C6.15658 7.92991 6.02938 7.98254 5.89677 7.98254C5.76416 7.98254 5.63697 7.92991 5.54312 7.83621L4.60396 6.89675C4.5102 6.80296 4.38303 6.75025 4.25042 6.75022C4.1178 6.75019 3.99061 6.80285 3.89681 6.8966C3.80302 6.99036 3.75031 7.11753 3.75028 7.25015C3.75026 7.38276 3.80291 7.50996 3.89667 7.60375L5.54312 9.25021C5.73854 9.44562 6.055 9.44562 6.25042 9.25021L10.1468 5.35383C10.3422 5.15842 10.3422 4.84196 10.1468 4.64683" fill="#44BB49"/>
</svg>
