
<svg width="24" height="24" viewBox="0 0 24 24" fill="none" xmlns="http://www.w3.org/2000/svg">
<path d="M7.18692 6.18465V4.33701C7.18692 3.60166 7.78858 3 8.52394 3H15.4765C16.2119 3 16.8135 3.60166 16.8135 4.33701V6.18465M21.1703 12.1598V19.2448C21.1703 19.9293 20.61 20.4896 19.9255 20.4896H4.07489C3.39037 20.4896 2.83008 19.9295 2.83008 19.2448V12.2012" stroke="#E4E6FF" stroke-width="1.5" stroke-miterlimit="22.9256" stroke-linecap="round" stroke-linejoin="round"/>
<path d="M10.3402 14.2553C5.95066 14.0043 2 12.749 2 10.4896V7.54364C2 6.85804 2.55917 6.29883 3.24481 6.29883H20.7552C21.4408 6.29883 22 6.85808 22 7.54364V10.4896C22 12.7632 17.9994 14.0199 13.5768 14.2599" stroke="#E4E6FF" stroke-width="1.5" stroke-miterlimit="22.9256" stroke-linecap="round" stroke-linejoin="round"/>
<path fill-rule="evenodd" clip-rule="evenodd" d="M10.4648 13.0205H13.5354V14.452C13.5354 15.2394 12.8912 15.8836 12.1038 15.8836H11.8964C11.109 15.8836 10.4648 15.2394 10.4648 14.452V13.0205Z" stroke="#E4E6FF" stroke-width="1.5" stroke-miterlimit="22.9256" stroke-linecap="round" stroke-linejoin="round"/>
</svg>
