
<svg width="80" height="80" viewBox="0 0 80 80" fill="none" xmlns="http://www.w3.org/2000/svg">
<path d="M66.6667 33.3335H56.6667V18.3335C56.6667 13.7168 53.0333 8.3335 48.3333 8.3335H13.3333C11.1232 8.3335 9.00358 9.21147 7.44078 10.7743C5.87797 12.3371 5 14.4567 5 16.6668V51.6668C5.00164 51.9959 5.10065 52.3171 5.28454 52.5899C5.46842 52.8628 5.72897 53.0751 6.03333 53.2002C6.28438 53.3032 6.5568 53.3435 6.82693 53.3173C7.09705 53.2912 7.35671 53.1995 7.58333 53.0502L15.6167 47.7002C16.627 47.0228 17.8169 46.6629 19.0333 46.6668H23.3333V61.6668C23.3333 63.877 24.2113 65.9966 25.7741 67.5594C27.3369 69.1222 29.4565 70.0002 31.6667 70.0002H60.9667C62.1831 69.9962 63.373 70.3561 64.3833 71.0335L72.4167 76.3835C72.6673 76.5486 72.9579 76.6429 73.2578 76.6565C73.5576 76.6701 73.8555 76.6025 74.1201 76.4609C74.3847 76.3192 74.6061 76.1087 74.761 75.8516C74.9159 75.5945 74.9985 75.3003 75 75.0002V41.6668C75 39.4567 74.122 37.3371 72.5592 35.7743C70.9964 34.2115 68.8768 33.3335 66.6667 33.3335ZM13.7667 45.0002L8.33333 48.5502V16.6668C8.33333 15.3407 8.86012 14.069 9.7978 13.1313C10.7355 12.1936 12.0073 11.6668 13.3333 11.6668H48.3333C50.9167 11.6668 53.3333 15.4168 53.3333 18.3335V38.3335C53.3333 39.6596 52.8065 40.9314 51.8689 41.869C50.9312 42.8067 49.6594 43.3335 48.3333 43.3335H19.0333C17.1506 43.3501 15.3161 43.9306 13.7667 45.0002ZM71.6667 71.8835L66.2333 68.3335C64.6839 67.2639 62.8494 66.6834 60.9667 66.6668H31.6667C30.3406 66.6668 29.0688 66.14 28.1311 65.2024C27.1934 64.2647 26.6667 62.9929 26.6667 61.6668V46.6668H61.6667C62.1087 46.6668 62.5326 46.4912 62.8452 46.1787C63.1577 45.8661 63.3333 45.4422 63.3333 45.0002C63.3333 44.5581 63.1577 44.1342 62.8452 43.8217C62.5326 43.5091 62.1087 43.3335 61.6667 43.3335H55C56.0906 41.8956 56.6765 40.1382 56.6667 38.3335V36.6668H66.6667C67.9927 36.6668 69.2645 37.1936 70.2022 38.1313C71.1399 39.069 71.6667 40.3408 71.6667 41.6668V71.8835Z" fill="#DCDDF3"/>
<path d="M18.3337 23.3333H43.3337C43.7757 23.3333 44.1996 23.1577 44.5122 22.8452C44.8247 22.5326 45.0003 22.1087 45.0003 21.6667C45.0003 21.2246 44.8247 20.8007 44.5122 20.4882C44.1996 20.1756 43.7757 20 43.3337 20H18.3337C17.8916 20 17.4677 20.1756 17.1551 20.4882C16.8426 20.8007 16.667 21.2246 16.667 21.6667C16.667 22.1087 16.8426 22.5326 17.1551 22.8452C17.4677 23.1577 17.8916 23.3333 18.3337 23.3333Z" fill="#DCDDF3"/>
<path d="M18.3337 29.9998H43.3337C43.7757 29.9998 44.1996 29.8242 44.5122 29.5117C44.8247 29.1991 45.0003 28.7752 45.0003 28.3332C45.0003 27.8911 44.8247 27.4672 44.5122 27.1547C44.1996 26.8421 43.7757 26.6665 43.3337 26.6665H18.3337C17.8916 26.6665 17.4677 26.8421 17.1551 27.1547C16.8426 27.4672 16.667 27.8911 16.667 28.3332C16.667 28.7752 16.8426 29.1991 17.1551 29.5117C17.4677 29.8242 17.8916 29.9998 18.3337 29.9998Z" fill="#DCDDF3"/>
<path d="M33.3337 35.0002C33.3337 34.5581 33.1581 34.1342 32.8455 33.8217C32.5329 33.5091 32.109 33.3335 31.667 33.3335H18.3337C17.8916 33.3335 17.4677 33.5091 17.1551 33.8217C16.8426 34.1342 16.667 34.5581 16.667 35.0002C16.667 35.4422 16.8426 35.8661 17.1551 36.1787C17.4677 36.4912 17.8916 36.6668 18.3337 36.6668H31.667C32.109 36.6668 32.5329 36.4912 32.8455 36.1787C33.1581 35.8661 33.3337 35.4422 33.3337 35.0002Z" fill="#DCDDF3"/>
<path d="M61.6667 50H36.6667C36.2246 50 35.8007 50.1756 35.4882 50.4882C35.1756 50.8007 35 51.2246 35 51.6667C35 52.1087 35.1756 52.5326 35.4882 52.8452C35.8007 53.1577 36.2246 53.3333 36.6667 53.3333H61.6667C62.1087 53.3333 62.5326 53.1577 62.8452 52.8452C63.1577 52.5326 63.3333 52.1087 63.3333 51.6667C63.3333 51.2246 63.1577 50.8007 62.8452 50.4882C62.5326 50.1756 62.1087 50 61.6667 50Z" fill="#DCDDF3"/>
<path d="M48.3333 56.6665H36.6667C36.2246 56.6665 35.8007 56.8421 35.4882 57.1547C35.1756 57.4672 35 57.8911 35 58.3332C35 58.7752 35.1756 59.1991 35.4882 59.5117C35.8007 59.8242 36.2246 59.9998 36.6667 59.9998H48.3333C48.7754 59.9998 49.1993 59.8242 49.5118 59.5117C49.8244 59.1991 50 58.7752 50 58.3332C50 57.8911 49.8244 57.4672 49.5118 57.1547C49.1993 56.8421 48.7754 56.6665 48.3333 56.6665Z" fill="#DCDDF3"/>
</svg>
