<svg width="80" height="80" viewBox="0 0 80 80" fill="none" xmlns="http://www.w3.org/2000/svg">
<path d="M56.4706 9.41177V7.41177C56.4706 3.32486 53.1457 0 49.0588 0H30.9412C26.8543 0 23.5294 3.32486 23.5294 7.41177V9.41177H0V68.2353H24.2155C26.2453 75.0312 32.5528 80 40 80C47.4474 80 53.7547 75.0312 55.7845 68.2353H80V9.41177H56.4706ZM28.2353 7.41177C28.2353 5.91969 29.4491 4.70588 30.9412 4.70588H49.0588C50.5509 4.70588 51.7647 5.91969 51.7647 7.41177V9.41177H28.2353V7.41177ZM40 75.2941C33.5129 75.2941 28.2353 70.0165 28.2353 63.5294C28.2353 57.0424 33.5129 51.7647 40 51.7647C46.4871 51.7647 51.7647 57.0424 51.7647 63.5294C51.7647 70.0165 46.4871 75.2941 40 75.2941ZM56.4706 63.5294C56.4706 54.4475 49.0819 47.0588 40 47.0588C30.9181 47.0588 23.5294 54.4475 23.5294 63.5294H4.70588V31.1038C7.1782 34.3228 10.3997 36.7873 14.1176 38.3067V40C14.1176 43.8924 17.2842 47.0588 21.1765 47.0588C25.0687 47.0588 28.2353 43.8924 28.2353 40H51.7647C51.7647 43.8924 54.9311 47.0588 58.8235 47.0588C62.7158 47.0588 65.8824 43.8924 65.8824 40V38.3067C69.6003 36.7873 72.8218 34.323 75.2941 31.1038V63.5294H56.4706ZM18.8235 40V32.9412H23.5294V40C23.5294 41.2976 22.4739 42.3529 21.1765 42.3529C19.8791 42.3529 18.8235 41.2976 18.8235 40ZM56.4706 40V32.9412H61.1765V40C61.1765 41.2976 60.1209 42.3529 58.8235 42.3529C57.526 42.3529 56.4706 41.2976 56.4706 40ZM65.8824 33.1048V28.2353H51.7647V35.2941H28.2353V28.2353H14.1176V33.1048C8.38024 29.994 4.70588 23.976 4.70588 17.2549V14.1176H75.2941V17.2549C75.2941 23.976 71.6198 29.994 65.8824 33.1048Z" fill="#DCDDF3"/>
<path d="M43.3788 56.8242L40.0006 60.2024L36.6225 56.8242L33.2949 60.1517L36.6731 63.5299L33.2949 66.9081L36.6225 70.2357L40.0006 66.8575L43.3788 70.2357L46.7064 66.9081L43.3282 63.5299L46.7064 60.1517L43.3788 56.8242Z" fill="#DCDDF3"/>
</svg>
