
<svg width="81" height="80" viewBox="0 0 81 80" fill="none" xmlns="http://www.w3.org/2000/svg">
<path d="M64.1108 23.3287C60.1601 9.86372 47.698 0.00274725 32.9748 0.00274725C7.80339 -0.324874 -8.18374 28.7199 5.54826 49.784V62.5599C5.51376 64.1191 7.16466 65.3078 8.63087 64.782L18.4946 61.4927C20.2133 62.3511 22.008 63.0516 23.8511 63.5908C29.4833 75.4694 46.8293 85.1803 63.6532 76.9293L72.3695 79.8357C73.8393 80.3606 75.4857 79.1728 75.4521 77.6136V66.6038C86.6555 49.8201 77.5835 29.6917 64.1108 23.3287ZM19.8077 56.8964C19.5387 56.7511 18.8272 56.4437 17.9535 56.735L10.2321 59.3099V49.0907C10.2321 48.6291 10.0958 48.1779 9.84024 47.7936C6.81447 43.2427 5.21508 37.9378 5.21508 32.4526C6.6065 -4.32473 59.3434 -4.32598 60.7345 32.4529C60.9884 53.1611 37.8844 66.9436 19.8077 56.8964ZM71.1954 64.5292C70.9175 64.924 70.7683 65.3951 70.7683 65.8779V74.3634L64.2046 72.1749C63.5963 71.972 62.9309 72.0276 62.3642 72.329C50.8757 78.6861 36.3153 74.0569 30.0419 64.7706C49.9365 66.7638 67.2797 49.4156 65.2867 29.518C75.6476 36.5641 79.6195 52.94 71.1954 64.5292Z" fill="#DCDDF3"/>
<path d="M35.0819 40.6833C37.3559 42.7957 40.5074 39.6454 38.3929 37.3697C35.4052 34.3834 30.5442 34.3831 27.5565 37.3698C26.6417 38.2843 26.6413 39.7675 27.5555 40.6824C28.4698 41.5977 29.9527 41.5978 30.8675 40.6833C32.0293 39.5218 33.92 39.522 35.0819 40.6833Z" fill="#DCDDF3"/>
<path d="M43.0079 29.6252C44.3013 29.6252 45.3499 28.5764 45.3499 27.2828V24.7738C45.2354 21.6706 40.7806 21.6703 40.666 24.7738V27.2828C40.666 28.5766 41.7146 29.6252 43.0079 29.6252Z" fill="#DCDDF3"/>
<path d="M22.9406 22.4316C21.6472 22.4316 20.5986 23.4804 20.5986 24.774V27.283C20.7131 30.3862 25.1679 30.3865 25.2825 27.283V24.774C25.2825 23.4804 24.2339 22.4316 22.9406 22.4316Z" fill="#DCDDF3"/>
</svg>
