
<svg width="80" height="80" viewBox="0 0 80 80" fill="none" xmlns="http://www.w3.org/2000/svg">
<path d="M18.7046 48.0799H39.7846C41.3846 48.0799 42.7206 46.5279 42.7206 44.4079V30.8079C42.7259 30.3673 42.6431 29.93 42.477 29.5219C42.3108 29.1137 42.0647 28.743 41.7531 28.4314C41.4415 28.1198 41.0707 27.8737 40.6626 27.7075C40.2544 27.5413 39.8172 27.4585 39.3766 27.4639H35.6166C35.6166 25.3359 34.4726 23.5439 32.1846 23.5439H26.3046C24.0166 23.5439 22.7926 25.4159 22.7926 27.4639H19.1126C18.6716 27.4585 18.2339 27.5413 17.8254 27.7074C17.4168 27.8734 17.0455 28.1194 16.7333 28.4309C16.421 28.7424 16.1742 29.1131 16.0071 29.5213C15.8401 29.9294 15.7563 30.3669 15.7606 30.8079V44.4079C15.7606 46.5279 16.9926 48.0799 18.7046 48.0799ZM41.1686 54.0399H35.3686C35.0083 54.0669 34.6716 54.229 34.4258 54.4939C34.1801 54.7587 34.0435 55.1066 34.0435 55.4679C34.0435 55.8292 34.1801 56.1771 34.4258 56.4419C34.6716 56.7067 35.0083 56.8689 35.3686 56.8959H41.1686C41.5288 56.8689 41.8656 56.7067 42.1113 56.4419C42.3571 56.1771 42.4936 55.8292 42.4936 55.4679C42.4936 55.1066 42.3571 54.7587 42.1113 54.4939C41.8656 54.229 41.5288 54.0669 41.1686 54.0399ZM25.6006 15.9199H41.3366C41.6968 15.8929 42.0336 15.7307 42.2793 15.4659C42.5251 15.2011 42.6616 14.8532 42.6616 14.4919C42.6616 14.1306 42.5251 13.7827 42.2793 13.5179C42.0336 13.253 41.6968 13.0909 41.3366 13.0639H25.6006C25.4041 13.0492 25.2066 13.0752 25.0206 13.1403C24.8346 13.2054 24.664 13.3081 24.5196 13.4422C24.3751 13.5762 24.2599 13.7386 24.1811 13.9193C24.1023 14.0999 24.0616 14.2948 24.0616 14.4919C24.0616 14.689 24.1023 14.8839 24.1811 15.0645C24.2599 15.2451 24.3751 15.4076 24.5196 15.5416C24.664 15.6756 24.8346 15.7784 25.0206 15.8435C25.2066 15.9086 25.4041 15.9346 25.6006 15.9199ZM29.1926 54.0399H17.2326C16.8723 54.0669 16.5356 54.229 16.2898 54.4939C16.0441 54.7587 15.9075 55.1066 15.9075 55.4679C15.9075 55.8292 16.0441 56.1771 16.2898 56.4419C16.5356 56.7067 16.8723 56.8689 17.2326 56.8959H29.1606C29.5208 56.8689 29.8576 56.7067 30.1033 56.4419C30.3491 56.1771 30.4856 55.8292 30.4856 55.4679C30.4856 55.1066 30.3491 54.7587 30.1033 54.4939C29.8576 54.229 29.5208 54.0669 29.1606 54.0399H29.1926ZM72.4566 18.7759L54.4006 11.6719V9.59989C54.3649 8.09116 53.7361 6.65727 52.6504 5.60903C51.5647 4.56078 50.1096 3.98263 48.6006 3.99989H19.9286C19.0326 3.99989 18.4566 4.65589 17.8086 5.30389L4.48857 18.0399C4.33088 18.1678 4.20482 18.3303 4.12018 18.5148C4.03554 18.6994 3.99461 18.9009 4.00057 19.1039L4.08057 62.0399C4.1204 63.5613 4.76159 65.005 5.8637 66.0546C6.96581 67.1042 8.439 67.6743 9.96057 67.6399H29.2406L49.1766 75.5599C49.8207 75.8225 50.5055 75.9713 51.2006 75.9999C52.3173 76.0234 53.4149 75.708 54.3489 75.0954C55.2828 74.4827 56.0093 73.6015 56.4326 72.5679L75.6326 25.9599C76.1551 24.5802 76.1122 23.0501 75.513 21.7019C74.9138 20.3538 73.8068 19.2965 72.4326 18.7599L72.4566 18.7759ZM17.8086 14.8559C17.7733 15.6029 17.4439 16.3057 16.8923 16.8108C16.3408 17.3159 15.6118 17.5823 14.8646 17.5519L9.06457 17.6319L17.8086 9.22389V14.8559ZM9.96057 64.7999C9.19732 64.8138 8.45805 64.5331 7.89638 64.0162C7.33471 63.4992 6.99382 62.7857 6.94457 62.0239L6.85657 20.4879L14.9446 20.4079C16.4384 20.4271 17.8791 19.8537 18.9512 18.8132C20.0232 17.7726 20.6393 16.3497 20.6646 14.8559L20.5846 6.85589H48.5846C48.9595 6.83983 49.334 6.89825 49.6863 7.02778C50.0385 7.15732 50.3616 7.35539 50.6369 7.61055C50.9121 7.86571 51.134 8.1729 51.2898 8.51436C51.4456 8.85581 51.5322 9.22477 51.5446 9.59989L51.6246 61.9279C51.6081 62.6702 51.3048 63.3773 50.7783 63.9008C50.2518 64.4244 49.543 64.7237 48.8006 64.7359L9.96057 64.7999ZM72.9526 24.8799L53.7526 71.4959C53.4569 72.1532 52.9137 72.6673 52.2411 72.9264C51.5686 73.1856 50.8209 73.1688 50.1606 72.8799L36.8406 67.6719L48.8006 67.5919C50.2927 67.5781 51.7217 66.9874 52.788 65.9434C53.8543 64.8995 54.4752 63.4834 54.5206 61.9919V38.4479L57.7846 39.7519C57.9659 39.8301 58.1642 39.8604 58.3606 39.8399C58.6439 39.8388 58.9202 39.7519 59.153 39.5905C59.3858 39.4291 59.5642 39.2008 59.6646 38.9359C59.7901 38.5804 59.7776 38.1907 59.6294 37.844C59.4813 37.4973 59.2083 37.2188 58.8646 37.0639L54.5366 35.3439L54.4006 27.0239L62.9046 30.3999C63.0847 30.4718 63.2796 30.4992 63.4726 30.4799C63.7628 30.4819 64.0465 30.3938 64.2844 30.2275C64.5224 30.0612 64.7027 29.8251 64.8006 29.5519C64.9265 29.1952 64.9142 28.8043 64.7661 28.4563C64.618 28.1083 64.3449 27.8284 64.0006 27.6719L54.4006 23.9199V14.7759L71.3926 21.4719C71.7241 21.5881 72.0287 21.7704 72.2879 22.0076C72.5471 22.2448 72.7555 22.5321 72.9005 22.8521C73.0456 23.1721 73.1243 23.5182 73.1318 23.8695C73.1394 24.2208 73.0757 24.5699 72.9446 24.8959L72.9526 24.8799ZM26.3046 26.3999H32.1846C32.8406 26.3999 32.7526 27.0559 32.7526 27.4639H25.6486C25.6486 27.0559 25.6486 26.3999 26.3046 26.3999ZM18.6246 30.8079C18.6152 30.7416 18.6214 30.6741 18.6427 30.6106C18.6639 30.5472 18.6996 30.4895 18.7469 30.4422C18.7942 30.3949 18.8519 30.3592 18.9153 30.338C18.9788 30.3168 19.0463 30.3106 19.1126 30.3199H39.3766C39.4413 30.3177 39.5057 30.3287 39.5659 30.3525C39.6261 30.3762 39.6808 30.4121 39.7266 30.4579C39.7724 30.5036 39.8082 30.5583 39.832 30.6185C39.8557 30.6787 39.8668 30.7432 39.8646 30.8079V34.7279L30.6326 36.7359C30.6206 36.3705 30.4701 36.0234 30.2116 35.7649C29.9531 35.5064 29.6059 35.3559 29.2406 35.3439C28.8673 35.3528 28.5107 35.5002 28.2401 35.7575C27.9695 36.0148 27.8043 36.3635 27.7766 36.7359L18.6246 34.6159V30.8079ZM18.6246 37.5839L27.7766 39.7039V40.2799C27.8036 40.6401 27.9657 40.9769 28.2305 41.2226C28.4954 41.4684 28.8433 41.6049 29.2046 41.6049C29.5658 41.6049 29.9138 41.4684 30.1786 41.2226C30.4434 40.9769 30.6056 40.6401 30.6326 40.2799V39.7039L39.8646 37.5999V44.3759C39.8646 44.8639 39.6966 45.1759 39.7846 45.1759L18.8726 45.2559C18.6903 44.9942 18.6028 44.6781 18.6246 44.3599V37.5839Z" fill="#DCDDF3"/>
</svg>
