
<svg width="66" height="66" viewBox="0 0 66 66" fill="none" xmlns="http://www.w3.org/2000/svg">
<path d="M59.5547 0H6.44531C2.89137 0 0 2.89137 0 6.44533V52.7872C0 53.6573 0.170156 54.5017 0.506602 55.2957C1.09686 56.7007 2.3448 58.0631 3.9368 58.7259C4.73086 59.0611 5.5752 59.2325 6.44531 59.2325H52.314L52.3157 59.2336L58.7767 65.6272C59.0278 65.8757 59.3555 66 59.6835 66C60.008 66 60.3326 65.8782 60.5831 65.6342L65.6104 60.7357C65.8576 60.495 65.9978 60.1653 65.9999 59.8204C66.0021 59.4755 65.8658 59.1441 65.6217 58.9003L64.0873 57.3679C64.6852 56.7762 65.1555 56.0855 65.4841 55.3148C65.8256 54.5143 65.9997 53.6635 65.9997 52.787V40.5885C65.9997 39.8783 65.421 39.2995 64.7107 39.2995C64.0004 39.2995 63.4216 39.8783 63.4216 40.5885V52.787C63.4216 53.8484 63.0001 54.8284 62.2633 55.5462L54.604 47.8968C54.1797 47.4728 53.534 47.4079 53.0399 47.699L50.8268 45.4861C52.7983 42.4909 53.9473 38.9086 53.9473 35.0626C53.9473 24.5783 45.4178 16.0489 34.9336 16.0489C24.4494 16.0489 15.9199 24.5783 15.9199 35.0626C15.9199 45.5468 24.4494 54.0763 34.9336 54.0763C38.7798 54.0763 42.3619 52.9272 45.3573 50.9561L47.5704 53.1693C47.4543 53.3668 47.3904 53.5928 47.391 53.8258C47.3919 54.1688 47.5294 54.4974 47.7733 54.7387L49.7093 56.6545H6.44531C4.31707 56.6507 2.58199 54.9156 2.57812 52.7873V12.8907H63.4219V28.9872C63.4219 29.6975 64.0007 30.2763 64.7109 30.2763C65.4212 30.2763 66 29.6975 66 28.9872V6.44533C66 2.89137 63.1086 0 59.5547 0ZM62.8754 59.8013L59.6907 62.9044L50.508 53.8176L53.6941 50.6315L62.8754 59.8013ZM18.498 35.0626C18.498 25.9999 25.871 18.627 34.9336 18.627C43.9962 18.627 51.3691 25.9999 51.3691 35.0626C51.3691 44.1252 43.9962 51.4981 34.9336 51.4981C25.871 51.4981 18.498 44.1252 18.498 35.0626ZM49.2547 47.5555C49.2564 47.5589 51.187 49.4924 51.187 49.4924L49.3632 51.3161L47.4292 49.3812C48.078 48.8144 48.688 48.2043 49.2547 47.5555ZM2.57812 10.3125V6.44533C2.57812 4.31295 4.31295 2.57813 6.44531 2.57813H59.5547C61.6871 2.57813 63.4219 4.31295 63.4219 6.44533V10.3125H2.57812Z" fill="#DCDDF3"/>
</svg>
