
<svg width="48" height="48" viewBox="0 0 48 48" fill="none" xmlns="http://www.w3.org/2000/svg">
<circle cx="24" cy="24" r="24" fill="#414360"/>
<path d="M18.1089 17.4597V15.2865C18.1089 14.4215 18.8166 13.7139 19.6815 13.7139H27.8592C28.7241 13.7139 29.4318 14.4215 29.4318 15.2865V17.4597M34.5563 24.4876V32.8211C34.5563 33.6263 33.8973 34.2853 33.0922 34.2853H14.4485C13.6434 34.2853 12.9844 33.6264 12.9844 32.8211V24.5364" stroke="white" stroke-width="1.5" stroke-miterlimit="22.9256" stroke-linecap="round" stroke-linejoin="round"/>
<path d="M21.8099 26.9522C16.6468 26.6569 12 25.1805 12 22.5229V19.0579C12 18.2515 12.6577 17.5938 13.4642 17.5938H34.06C34.8664 17.5938 35.5242 18.2515 35.5242 19.0579V22.5229C35.5242 25.1972 30.8186 26.6754 25.6167 26.9576" stroke="white" stroke-width="1.5" stroke-miterlimit="22.9256" stroke-linecap="round" stroke-linejoin="round"/>
<path fill-rule="evenodd" clip-rule="evenodd" d="M21.9609 25.501H25.5725V27.1848C25.5725 28.1108 24.8148 28.8685 23.8887 28.8685H23.6447C22.7186 28.8685 21.9609 28.1108 21.9609 27.1848V25.501Z" stroke="white" stroke-width="1.5" stroke-miterlimit="22.9256" stroke-linecap="round" stroke-linejoin="round"/>
</svg>
