
<svg width="8" height="10" viewBox="0 0 8 10" fill="none" xmlns="http://www.w3.org/2000/svg">
<path d="M5.362 10L0.756 6.388V5.324H3.206C3.72867 5.324 4.14867 5.20733 4.466 4.974C4.79267 4.73133 4.99333 4.38133 5.068 3.924H0.756V3.042H5.068C4.99333 2.594 4.79267 2.25333 4.466 2.02C4.14867 1.77733 3.72867 1.656 3.206 1.656L0.756 1.642V0.76H7.406V1.67L5.166 1.656C5.40867 1.74933 5.60933 1.922 5.768 2.174C5.92667 2.41667 6.034 2.706 6.09 3.042H7.406V3.924H6.09C6.034 4.38133 5.88 4.78267 5.628 5.128C5.376 5.464 5.04467 5.73 4.634 5.926C4.22333 6.11267 3.74733 6.206 3.206 6.206H2.072L7.042 10H5.362Z" fill="#E4E6FF"/>
</svg>
