
<svg width="20" height="20" viewBox="0 0 20 20" fill="none" xmlns="http://www.w3.org/2000/svg">
<path fill-rule="evenodd" clip-rule="evenodd" d="M9.16699 0.208496C4.67968 0.208496 1.04199 3.84618 1.04199 8.3335C1.04199 12.8208 4.67968 16.4585 9.16699 16.4585C13.6543 16.4585 17.292 12.8208 17.292 8.3335C17.292 3.84618 13.6543 0.208496 9.16699 0.208496ZM2.29199 8.3335C2.29199 4.53654 5.37004 1.4585 9.16699 1.4585C12.964 1.4585 16.042 4.53654 16.042 8.3335C16.042 12.1305 12.964 15.2085 9.16699 15.2085C5.37004 15.2085 2.29199 12.1305 2.29199 8.3335Z" fill="#E4E6FF"/>
<path d="M16.2757 14.5583C16.0316 14.3142 15.6359 14.3142 15.3918 14.5583C15.1477 14.8024 15.1477 15.1981 15.3918 15.4422L18.725 18.7755C18.9691 19.0195 19.3648 19.0196 19.6089 18.7755C19.853 18.5314 19.853 18.1357 19.6089 17.8916L16.2757 14.5583Z" fill="#E4E6FF"/>
</svg>
