
<svg width="22" height="21" viewBox="0 0 22 21" fill="none" xmlns="http://www.w3.org/2000/svg">
<path d="M7.48332 5.08773H20.3986L13.3435 10.6279C13.2018 10.7363 13.0324 10.8022 12.8548 10.8182C12.6762 10.8019 12.5058 10.736 12.3627 10.6279L7.32088 6.6673C7.26752 6.62409 7.2064 6.59148 7.14081 6.57121C7.38545 6.22839 7.51362 5.8161 7.50645 5.395C7.50433 5.29223 7.49661 5.18966 7.48332 5.08773ZM4.19889 1.52467C4.21514 1.52742 4.24184 1.53761 4.29994 1.56459C4.41475 1.6191 4.5973 1.75952 4.77599 1.95528C5.13585 2.34736 5.49543 2.94125 5.6821 3.33332C5.68788 3.34488 5.69394 3.35755 5.69945 3.37049C6.22919 4.27936 6.45771 4.97457 6.46459 5.41069C6.47203 5.84874 6.35446 6.03735 5.98304 6.25073L5.02489 6.80304C4.40071 7.16235 4.10583 7.80635 4.03259 8.40712C3.95908 9.00817 4.06728 9.59215 4.33463 10.0539L6.69973 14.1302C6.96762 14.5916 7.42495 14.9776 7.98415 15.2147C8.5439 15.4523 9.25177 15.5195 9.87595 15.161L10.8341 14.6098C11.2052 14.397 11.4296 14.3926 11.8066 14.6167C12.1846 14.8413 12.6755 15.384 13.2031 16.2934C13.2105 16.3069 13.2176 16.3182 13.2262 16.3312C13.4734 16.6877 13.8102 17.2926 13.9726 17.7992C14.0533 18.0509 14.0849 18.2783 14.0748 18.4041C14.0635 18.5305 14.0607 18.5176 14.0274 18.5374L13.2983 18.9553C11.4668 19.7497 9.78812 19.5704 8.28784 18.7923C6.7848 18.011 5.47836 16.5999 4.56756 14.9432C4.56453 14.9399 4.56316 14.9358 4.56068 14.9336L2.56563 11.4952C2.56232 11.4919 2.56095 11.4889 2.55819 11.4845C1.57113 9.87106 0.995963 8.03928 1.0681 6.35398C1.14024 4.67115 1.82306 3.13701 3.43154 1.95666L4.1609 1.54008C4.17769 1.53045 4.1832 1.52301 4.19889 1.52467ZM4.20633 0.500157C4.01332 0.497129 3.81646 0.537602 3.63942 0.640301L2.86822 1.08386C2.85087 1.09377 2.8349 1.10396 2.81921 1.11387C0.963749 2.47181 0.109396 4.36223 0.0259706 6.31075C-0.0574548 8.25844 0.592878 10.2686 1.66722 12.0261L3.65566 15.4526L3.65098 15.4424C4.64355 17.2461 6.06591 18.8108 7.80408 19.7122C9.54307 20.615 11.6147 20.8243 13.7248 19.9041C13.7422 19.8967 13.7598 19.8884 13.7755 19.8788L14.5478 19.4352C14.9049 19.2321 15.0844 18.8367 15.1136 18.4914C15.1436 18.1472 15.0734 17.8122 14.9668 17.482C14.7581 16.8292 14.3941 16.1951 14.0935 15.7601C13.5255 14.783 12.977 14.1048 12.3432 13.7257C12.037 13.5416 11.687 13.443 11.3298 13.4402C10.9725 13.4375 10.6211 13.5306 10.3121 13.71L9.35392 14.2623C9.07088 14.4253 8.73993 14.4063 8.39164 14.259C8.045 14.1117 7.72396 13.8171 7.60474 13.6106L5.23965 9.53461C5.12015 9.32701 5.02241 8.90355 5.06866 8.5302C5.11327 8.15795 5.26443 7.86637 5.54774 7.7031L6.47864 7.16786C6.50287 7.29258 6.57335 7.40574 6.6755 7.48173L11.7176 11.4432C12.0349 11.6943 12.4215 11.8422 12.8253 11.8669C12.8454 11.868 12.8655 11.868 12.8856 11.8669C13.289 11.842 13.6751 11.6941 13.9919 11.4432L20.9363 5.98779V15.0005C20.9363 15.1376 20.7799 15.3182 20.4732 15.3182H15.6656C15.5971 15.3177 15.5291 15.3308 15.4656 15.3567C15.4021 15.3826 15.3444 15.4208 15.2957 15.4691C15.2471 15.5174 15.2084 15.5748 15.182 15.6381C15.1556 15.7013 15.142 15.7692 15.1419 15.8378C15.1419 16.1249 15.3765 16.3584 15.6656 16.3568H20.4732C21.259 16.3568 21.9812 15.7888 21.9812 15.0005V5.40546C21.9812 4.61664 21.259 4.0489 20.4732 4.0489H7.19725C7.05022 3.68134 6.85612 3.29174 6.61162 2.86828C6.38282 2.39196 6.01167 1.76228 5.54719 1.25594C5.31261 0.999333 5.05958 0.771909 4.74322 0.624882V0.626259C4.57494 0.547431 4.3921 0.504487 4.20633 0.500157Z" fill="url(#paint0_linear_1330_32398)"/>
<defs>
<linearGradient id="paint0_linear_1330_32398" x1="0.652001" y1="1.52228" x2="2.66983" y2="22.7109" gradientUnits="userSpaceOnUse">
<stop stop-color="#2AEBEB"/>
<stop offset="0.45" stop-color="#6174FF"/>
<stop offset="0.75" stop-color="#B63CFB"/>
<stop offset="1" stop-color="#FF47E3"/>
</linearGradient>
</defs>
</svg>
