<svg width="28" height="28" viewBox="0 0 28 28" fill="none" xmlns="http://www.w3.org/2000/svg">
<path d="M25.6673 13.9997C25.6673 20.4443 20.4442 25.6663 14.0007 25.6663C7.55715 25.6663 2.33398 20.4443 2.33398 13.9997C2.33398 7.55734 7.55715 2.33301 14.0007 2.33301C20.4442 2.33301 25.6673 7.55734 25.6673 13.9997Z" fill="#3D3F58"/>
<path fill-rule="evenodd" clip-rule="evenodd" d="M8.77462 12.604C8.00345 12.604 7.37695 13.2305 7.37695 13.9993C7.37695 14.7693 8.00345 15.397 8.77462 15.397C9.54579 15.397 10.1723 14.7693 10.1723 13.9993C10.1723 13.2305 9.54579 12.604 8.77462 12.604ZM14.0002 12.604C13.2291 12.604 12.6026 13.2305 12.6026 13.9993C12.6026 14.7693 13.2291 15.397 14.0002 15.397C14.7714 15.397 15.3979 14.7693 15.3979 13.9993C15.3979 13.2305 14.7714 12.604 14.0002 12.604ZM17.8285 13.9993C17.8285 13.2305 18.455 12.604 19.2262 12.604C19.9974 12.604 20.6239 13.2305 20.6239 13.9993C20.6239 14.7693 19.9974 15.397 19.2262 15.397C18.455 15.397 17.8285 14.7693 17.8285 13.9993Z" fill="white"/>
</svg>
