
<svg width="32" height="32" viewBox="0 0 32 32" fill="none" xmlns="http://www.w3.org/2000/svg">
<circle cx="15.9988" cy="15.9998" r="10.1053" fill="white"/>
<path fill-rule="evenodd" clip-rule="evenodd" d="M16 32C7.16333 32 0 24.8367 0 16C0 7.16333 7.16333 0 16 0C24.8367 0 32 7.16333 32 16C32 24.8367 24.8367 32 16 32ZM23.192 10.62C23.0859 10.5138 22.9599 10.4295 22.8212 10.372C22.6825 10.3146 22.5338 10.285 22.3837 10.285C22.2335 10.285 22.0849 10.3146 21.9462 10.372C21.8075 10.4295 21.6815 10.5138 21.5753 10.62L14.2867 17.9113C14.0722 18.1255 13.7814 18.2458 13.4783 18.2458C13.1752 18.2458 12.8845 18.1255 12.67 17.9113L10.5233 15.764C10.309 15.5496 10.0184 15.4291 9.71524 15.4291C9.41211 15.429 9.12138 15.5494 8.907 15.7637C8.69262 15.978 8.57214 16.2686 8.57208 16.5718C8.57202 16.8749 8.69237 17.1656 8.90667 17.38L12.67 21.1433C13.1167 21.59 13.84 21.59 14.2867 21.1433L23.1927 12.2373C23.6393 11.7907 23.6393 11.0673 23.1927 10.6213" fill="#44BB49"/>
</svg>
