
<svg width="56" height="56" viewBox="0 0 56 56" fill="none" xmlns="http://www.w3.org/2000/svg">
<circle cx="28" cy="28" r="28" fill="url(#paint0_linear_185_4323)"/>
<circle cx="28" cy="28" r="28" fill="url(#paint1_linear_185_4323)"/>
<path fill-rule="evenodd" clip-rule="evenodd" d="M27.3346 39.0172H15.9346C15.8639 39.0172 15.7961 38.9891 15.7461 38.9391C15.6961 38.8891 15.668 38.8212 15.668 38.7505V36.8172C15.668 35.7092 16.4586 34.7332 17.6773 33.9038C19.8533 32.4185 23.3746 31.4825 27.3346 31.4825C27.5999 31.4825 27.8542 31.3771 28.0417 31.1896C28.2293 31.0021 28.3346 30.7477 28.3346 30.4825C28.3346 30.2173 28.2293 29.9629 28.0417 29.7754C27.8542 29.5879 27.5999 29.4825 27.3346 29.4825C22.9053 29.4825 18.984 30.5905 16.5493 32.2505C14.692 33.5172 13.668 35.1265 13.668 36.8158V38.7505C13.6683 39.3514 13.9073 39.9276 14.3323 40.3524C14.7574 40.7772 15.3337 41.0158 15.9346 41.0158L27.3346 41.0172C27.5999 41.0172 27.8542 40.9118 28.0417 40.7243C28.2293 40.5367 28.3346 40.2824 28.3346 40.0172C28.3346 39.752 28.2293 39.4976 28.0417 39.3101C27.8542 39.1225 27.5999 39.0172 27.3346 39.0172ZM27.3346 13.6665C23.2866 13.6665 20.0013 16.9518 20.0013 20.9998C20.0013 25.0478 23.2866 28.3332 27.3346 28.3332C31.3826 28.3332 34.668 25.0478 34.668 20.9998C34.668 16.9518 31.3826 13.6665 27.3346 13.6665ZM27.3346 15.6665C30.2786 15.6665 32.668 18.0558 32.668 20.9998C32.668 23.9438 30.2786 26.3332 27.3346 26.3332C24.3906 26.3332 22.0013 23.9438 22.0013 20.9998C22.0013 18.0558 24.3906 15.6665 27.3346 15.6665ZM36.3346 35.3332V31.9998C36.3346 31.7346 36.2293 31.4803 36.0417 31.2927C35.8542 31.1052 35.5998 30.9998 35.3346 30.9998C35.0694 30.9998 34.8151 31.1052 34.6275 31.2927C34.44 31.4803 34.3346 31.7346 34.3346 31.9998V35.3332C34.3346 35.5984 34.44 35.8527 34.6275 36.0403C34.8151 36.2278 35.0694 36.3332 35.3346 36.3332C35.5998 36.3332 35.8542 36.2278 36.0417 36.0403C36.2293 35.8527 36.3346 35.5984 36.3346 35.3332Z" fill="white"/>
<path d="M35.3333 39.6667C36.0697 39.6667 36.6667 39.0697 36.6667 38.3333C36.6667 37.597 36.0697 37 35.3333 37C34.597 37 34 37.597 34 38.3333C34 39.0697 34.597 39.6667 35.3333 39.6667Z" fill="white"/>
<path fill-rule="evenodd" clip-rule="evenodd" d="M35.3359 28.333C31.4719 28.333 28.3359 31.469 28.3359 35.333C28.3359 39.197 31.4719 42.333 35.3359 42.333C39.1999 42.333 42.3359 39.197 42.3359 35.333C42.3359 31.469 39.1999 28.333 35.3359 28.333ZM35.3359 30.333C38.0959 30.333 40.3359 32.573 40.3359 35.333C40.3359 38.093 38.0959 40.333 35.3359 40.333C32.5759 40.333 30.3359 38.093 30.3359 35.333C30.3359 32.573 32.5759 30.333 35.3359 30.333Z" fill="white"/>
<defs>
<linearGradient id="paint0_linear_185_4323" x1="-2.71169" y1="92" x2="-90.8182" y2="-9.09259" gradientUnits="userSpaceOnUse">
<stop offset="0.145" stop-color="#6174FF"/>
<stop offset="1" stop-color="#FF99EF"/>
</linearGradient>
<linearGradient id="paint1_linear_185_4323" x1="-137.764" y1="219.064" x2="-153.665" y2="6.03805" gradientUnits="userSpaceOnUse">
<stop offset="0.576997" stop-color="#5800E8"/>
<stop offset="0.961976" stop-color="#FF97EF"/>
</linearGradient>
</defs>
</svg>
