
<svg width="76" height="100" viewBox="0 0 76 100" fill="none" xmlns="http://www.w3.org/2000/svg">
<path d="M76 38C76 50.0415 70.3992 60.7748 61.66 67.7367C55.1689 72.9096 46.9451 76 38 76C29.0549 76 20.8311 72.9096 14.34 67.7367C5.6008 60.7748 0 50.0415 0 38C0 17.0134 17.0134 0 38 0C58.9866 0 76 17.0134 76 38Z" fill="#414360"/>
<path d="M38.0008 45.4823C46.8227 45.4823 53.9742 38.3307 53.9742 29.5089C53.9742 20.687 46.8227 13.5354 38.0008 13.5354C29.1789 13.5354 22.0273 20.687 22.0273 29.5089C22.0273 38.3307 29.1789 45.4823 38.0008 45.4823Z" fill="#7C7E93"/>
<path d="M61.6599 67.7368C55.1688 72.9097 46.945 76.0002 37.9999 76.0002C29.0548 76.0002 20.8309 72.9097 14.3398 67.7368C17.4126 57.5828 26.8429 50.1904 37.9999 50.1904C49.1569 50.1904 58.5871 57.5828 61.6599 67.7368Z" fill="#7C7E93"/>
<g filter="url(#filter0_d_173_950)">
<circle cx="38" cy="74" r="12" fill="#272A46"/>
</g>
<path d="M34.7907 71.7674C34.7907 72.071 34.8807 72.3678 35.0494 72.6202C35.218 72.8726 35.4577 73.0693 35.7382 73.1855C36.0187 73.3017 36.3273 73.3321 36.625 73.2728C36.9228 73.2136 37.1963 73.0674 37.4109 72.8528C37.6256 72.6381 37.7717 72.3646 37.831 72.0669C37.8902 71.7691 37.8598 71.4605 37.7436 71.1801C37.6275 70.8996 37.4307 70.6599 37.1783 70.4912C36.9259 70.3226 36.6292 70.2326 36.3256 70.2326C35.9186 70.2329 35.5284 70.3947 35.2406 70.6824C34.9528 70.9702 34.791 71.3605 34.7907 71.7674ZM37.0233 71.7674C37.0233 71.9054 36.9823 72.0403 36.9057 72.155C36.829 72.2698 36.7201 72.3592 36.5926 72.412C36.4651 72.4648 36.3248 72.4786 36.1895 72.4517C36.0541 72.4248 35.9298 72.3583 35.8323 72.2608C35.7347 72.1632 35.6682 72.0389 35.6413 71.9036C35.6144 71.7682 35.6282 71.6279 35.681 71.5005C35.7338 71.373 35.8232 71.264 35.938 71.1873C36.0527 71.1107 36.1876 71.0698 36.3256 71.0698C36.5105 71.0701 36.6878 71.1437 36.8186 71.2744C36.9494 71.4052 37.023 71.5825 37.0233 71.7674ZM43.5814 72.4651C43.4704 72.4651 43.3639 72.5092 43.2854 72.5877C43.2069 72.6662 43.1628 72.7727 43.1628 72.8837V74.149L42.9446 73.962C42.6464 73.715 42.2713 73.5798 41.8841 73.5798C41.4969 73.5798 41.1218 73.715 40.8236 73.962L38.5023 75.9535C38.356 76.07 38.1745 76.1334 37.9874 76.1334C37.8004 76.1334 37.6189 76.07 37.4726 75.9535L37.2873 75.7944C37.0123 75.5668 36.6715 75.4335 36.3152 75.4142C35.9588 75.3948 35.6056 75.4903 35.3075 75.6867L33.0041 77.2327C32.8833 76.7224 32.8272 76.1988 32.8372 75.6744V72.3256C32.8372 69.7503 33.7503 68.8372 36.3256 68.8372H38.5581C38.6692 68.8372 38.7756 68.7931 38.8541 68.7146C38.9326 68.6361 38.9767 68.5296 38.9767 68.4186C38.9767 68.3076 38.9326 68.2011 38.8541 68.1226C38.7756 68.0441 38.6692 68 38.5581 68H36.3256C33.2938 68 32 69.2932 32 72.3256V75.6744C32 78.7068 33.2938 80 36.3256 80H39.6744C42.7062 80 44 78.7068 44 75.6744V72.8837C44 72.7727 43.9559 72.6662 43.8774 72.5877C43.7989 72.5092 43.6924 72.4651 43.5814 72.4651ZM43.1628 75.6744C43.1628 78.2497 42.2497 79.1628 39.6744 79.1628H36.3256C34.7868 79.1628 33.8452 78.8329 33.3334 78.0214L35.7736 76.3838C35.9199 76.2902 36.0917 76.2444 36.2652 76.2528C36.4388 76.2612 36.6054 76.3234 36.742 76.4307L36.9273 76.5903C37.2252 76.8379 37.6004 76.9734 37.9877 76.9734C38.3751 76.9734 38.7502 76.8379 39.0482 76.5903L41.3712 74.5972C41.5176 74.4812 41.6989 74.4181 41.8858 74.4181C42.0726 74.4181 42.2539 74.4812 42.4004 74.5972L43.1639 75.2525L43.1628 75.6744ZM39.6744 70.093C39.6744 69.982 39.7185 69.8755 39.797 69.797C39.8755 69.7185 39.982 69.6744 40.093 69.6744H41.2093V68.5581C41.2093 68.4471 41.2534 68.3406 41.3319 68.2621C41.4104 68.1836 41.5169 68.1395 41.6279 68.1395C41.7389 68.1395 41.8454 68.1836 41.9239 68.2621C42.0024 68.3406 42.0465 68.4471 42.0465 68.5581V69.6744H43.1628C43.2738 69.6744 43.3803 69.7185 43.4588 69.797C43.5373 69.8755 43.5814 69.982 43.5814 70.093C43.5814 70.204 43.5373 70.3105 43.4588 70.389C43.3803 70.4675 43.2738 70.5116 43.1628 70.5116H42.0465V71.6279C42.0465 71.7389 42.0024 71.8454 41.9239 71.9239C41.8454 72.0024 41.7389 72.0465 41.6279 72.0465C41.5169 72.0465 41.4104 72.0024 41.3319 71.9239C41.2534 71.8454 41.2093 71.7389 41.2093 71.6279V70.5116H40.093C39.982 70.5116 39.8755 70.4675 39.797 70.389C39.7185 70.3105 39.6744 70.204 39.6744 70.093Z" fill="white"/>
<defs>
<filter id="filter0_d_173_950" x="18" y="60" width="40" height="40" filterUnits="userSpaceOnUse" color-interpolation-filters="sRGB">
<feFlood flood-opacity="0" result="BackgroundImageFix"/>
<feColorMatrix in="SourceAlpha" type="matrix" values="0 0 0 0 0 0 0 0 0 0 0 0 0 0 0 0 0 0 127 0" result="hardAlpha"/>
<feOffset dy="6"/>
<feGaussianBlur stdDeviation="4"/>
<feComposite in2="hardAlpha" operator="out"/>
<feColorMatrix type="matrix" values="0 0 0 0 0 0 0 0 0 0 0 0 0 0 0 0 0 0 0.3 0"/>
<feBlend mode="normal" in2="BackgroundImageFix" result="effect1_dropShadow_173_950"/>
<feBlend mode="normal" in="SourceGraphic" in2="effect1_dropShadow_173_950" result="shape"/>
</filter>
</defs>
</svg>
