
<svg width="67" height="67" viewBox="0 0 67 67" fill="none" xmlns="http://www.w3.org/2000/svg">
<path d="M24 0C14.8444 0 7.375 7.46938 7.375 16.625C7.375 22.3488 10.2962 27.4312 14.7232 30.4309C6.25163 34.0646 0.25 42.4721 0.25 52.25H5C5 41.7288 13.4788 33.25 24 33.25C27.2656 33.25 30.308 34.105 32.9799 35.5514C30.245 38.9333 28.7521 43.1506 28.75 47.5C28.75 57.9642 37.2858 66.5 47.75 66.5C58.2142 66.5 66.75 57.9642 66.75 47.5C66.75 37.0358 58.2142 28.5 47.75 28.5C43.7474 28.5035 39.8491 29.7766 36.616 32.1361C35.549 31.4809 34.4326 30.91 33.2767 30.4285C35.5362 28.9032 37.3874 26.8475 38.6685 24.4411C39.9495 22.0347 40.6213 19.3511 40.625 16.625C40.625 7.46938 33.158 0 24 0ZM24 4.75C30.5859 4.75 35.875 10.0391 35.875 16.625C35.875 23.2109 30.5859 28.5 24 28.5C17.4141 28.5 12.125 23.2109 12.125 16.625C12.125 10.0391 17.4141 4.75 24 4.75ZM47.75 33.25C55.6445 33.25 62 39.6055 62 47.5C62 55.3945 55.6445 61.75 47.75 61.75C39.8555 61.75 33.5 55.3945 33.5 47.5C33.5 39.6055 39.8555 33.25 47.75 33.25ZM55.5424 41.0424L47.75 48.8348L42.3326 43.4198L38.9174 46.8326L46.0424 53.9576L47.75 55.5892L49.4576 53.9576L58.9576 44.4576L55.5424 41.0424Z" fill="url(#paint0_linear_81_657)"/>
<defs>
<linearGradient id="paint0_linear_81_657" x1="20.8333" y1="-6.55952" x2="28.7339" y2="73.8304" gradientUnits="userSpaceOnUse">
<stop stop-color="#2AEBEB"/>
<stop offset="0.0001" stop-color="#2AEBEB"/>
<stop offset="0.45" stop-color="#6174FF"/>
<stop offset="0.75" stop-color="#B63CFB"/>
<stop offset="1" stop-color="#FF47E3"/>
</linearGradient>
</defs>
</svg>
