<svg width="76" height="76" viewBox="0 0 76 76" fill="none" xmlns="http://www.w3.org/2000/svg">
<path d="M51.7212 69.6668H24.2769C13.5442 69.6668 6.33398 62.1393 6.33398 50.9337V25.0698C6.33398 13.8642 13.5442 6.3335 24.2769 6.3335H51.7244C62.4571 6.3335 69.6673 13.8642 69.6673 25.0698V50.9337C69.6673 62.1393 62.4571 69.6668 51.7212 69.6668Z" fill="#202132"/>
<path fill-rule="evenodd" clip-rule="evenodd" d="M35.6108 27.471C35.6108 31.8093 32.0799 35.3401 27.7416 35.3401C23.4001 35.3401 19.8724 31.8093 19.8724 27.471C19.8724 23.1326 23.4001 19.5986 27.7416 19.5986C32.0799 19.5986 35.6108 23.1326 35.6108 27.471ZM61.4362 44.6109C62.174 45.3265 62.7029 46.1435 63.0512 47.0144C64.1057 49.649 63.5579 52.8157 62.4305 55.425C61.0942 58.5315 58.5355 60.878 55.3119 61.904C53.8805 62.3632 52.3795 62.5595 50.8817 62.5595H24.3419C21.7009 62.5595 19.3639 61.9452 17.448 60.7925C16.2479 60.0705 16.0357 58.408 16.9255 57.325C18.4139 55.52 19.8832 53.7087 21.3652 51.8815C24.1899 48.3855 26.093 47.3722 28.2084 48.262C29.0665 48.6294 29.9279 49.1835 30.8145 49.7662C33.1769 51.3305 36.4607 53.4775 40.7864 51.1469C43.7432 49.5301 45.4595 46.7635 46.9534 44.3554L46.9835 44.3069C47.0841 44.1457 47.1837 43.9846 47.2831 43.8241C47.7911 43.0032 48.2914 42.1948 48.8582 41.4505C49.5612 40.529 52.1705 37.6474 55.543 39.6994C57.6932 40.9914 59.5014 42.7394 61.4362 44.6109Z" fill="#2C2E44"/>
</svg>
