<svg width="28" height="28" viewBox="0 0 28 28" fill="none" xmlns="http://www.w3.org/2000/svg">
<circle cx="14" cy="14" r="14" fill="url(#paint0_linear_2832_21765)"/>
<path d="M14.3569 8.61621C14.656 8.61621 14.8987 8.85896 14.8987 9.15806V13.818H19.5586C19.7023 13.818 19.8401 13.875 19.9418 13.9767C20.0434 14.0783 20.1005 14.2161 20.1005 14.3598C20.1005 14.5035 20.0434 14.6413 19.9418 14.7429C19.8401 14.8446 19.7023 14.9016 19.5586 14.9016H14.8987V19.5615C14.8987 19.7052 14.8416 19.8431 14.74 19.9447C14.6384 20.0463 14.5006 20.1034 14.3569 20.1034C14.2132 20.1034 14.0753 20.0463 13.9737 19.9447C13.8721 19.8431 13.815 19.7052 13.815 19.5615V14.9016H9.15513C9.01142 14.9016 8.8736 14.8446 8.77198 14.7429C8.67037 14.6413 8.61328 14.5035 8.61328 14.3598C8.61328 14.2161 8.67037 14.0783 8.77198 13.9767C8.8736 13.875 9.01142 13.818 9.15513 13.818H13.815V9.15806C13.815 8.85896 14.0578 8.61621 14.3569 8.61621Z" fill="white"/>
<defs>
<linearGradient id="paint0_linear_2832_21765" x1="14.359" y1="-2.15385" x2="12.6887" y2="36.0869" gradientUnits="userSpaceOnUse">
<stop stop-color="#2AEBEB"/>
<stop offset="0.45" stop-color="#6174FF"/>
<stop offset="0.75" stop-color="#B63CFB"/>
<stop offset="1" stop-color="#FF47E3"/>
</linearGradient>
</defs>
</svg>
