<svg width="24" height="21" viewBox="0 0 24 21" fill="none" xmlns="http://www.w3.org/2000/svg">
<path d="M6.70464 4.50311V2.47071C6.70464 1.66183 7.36647 1 8.17535 1H15.8231C16.6321 1 17.2939 1.66183 17.2939 2.47071V4.50311M22.0864 11.0757V18.8693C22.0864 19.6223 21.4701 20.2386 20.7171 20.2386H3.2814C2.52843 20.2386 1.91211 19.6224 1.91211 18.8693V11.1214" stroke="#E4E6FF" stroke-width="1.5" stroke-miterlimit="22.9256" stroke-linecap="round" stroke-linejoin="round"/>
<path d="M10.1743 13.381C5.34573 13.1049 1 11.7241 1 9.23873V5.9982C1 5.24404 1.61509 4.62891 2.36929 4.62891H21.6307C22.3849 4.62891 23 5.24408 23 5.9982V9.23873C23 11.7397 18.5994 13.1221 13.7344 13.386" stroke="#E4E6FF" stroke-width="1.5" stroke-miterlimit="22.9256" stroke-linecap="round" stroke-linejoin="round"/>
<path fill-rule="evenodd" clip-rule="evenodd" d="M10.3105 12.0225H13.6881V13.5971C13.6881 14.4632 12.9795 15.1718 12.1135 15.1718H11.8852C11.0192 15.1718 10.3105 14.4632 10.3105 13.5971V12.0225Z" stroke="#E4E6FF" stroke-width="1.5" stroke-miterlimit="22.9256" stroke-linecap="round" stroke-linejoin="round"/>
</svg>
